<svg width="32" height="49" viewBox="0 0 32 49" fill="none" xmlns="http://www.w3.org/2000/svg">
<path d="M3.61766 28.9864L3.61252 28.9786L3.6071 28.9711C1.2976 25.7433 0.280062 21.4154 0.539489 17.1556C0.798938 12.8955 2.33175 8.76303 5.04809 5.91562C11.0999 -0.427301 20.901 -0.427255 26.9519 5.91562C29.6683 8.76303 31.2011 12.8955 31.4605 17.1556C31.7199 21.4154 30.7024 25.7433 28.3929 28.9711L28.3875 28.9786L28.3823 28.9864L16 47.7317L3.61766 28.9864ZM10.3744 17.2668C10.3744 20.5783 12.9406 23.303 16.1558 23.303C19.371 23.303 21.9372 20.5783 21.9372 17.2668C21.9372 13.9552 19.371 11.2305 16.1558 11.2305C12.9406 11.2305 10.3744 13.9552 10.3744 17.2668Z" stroke="#333333"/>
</svg>
