<svg width="16" height="18" viewBox="0 0 16 18" fill="none" xmlns="http://www.w3.org/2000/svg">
<path d="M1.96894 10.3928L1.97552 10.4003L8 17.2433L14.0245 10.4003L14.0311 10.3928L14.0379 10.3856C16.2168 8.10082 15.9385 4.27342 13.3477 2.23578C10.4052 -0.0785746 5.59531 -0.0786089 2.65226 2.23578L1.96894 10.3928ZM1.96894 10.3928L1.96208 10.3856M1.96894 10.3928L1.96208 10.3856M1.96208 10.3856C-0.216771 8.10083 0.0615131 4.27344 2.65223 2.2358L1.96208 10.3856ZM4.93719 6.23066C4.93719 7.75917 6.46174 8.8076 8.0779 8.8076C9.69406 8.8076 11.2186 7.75917 11.2186 6.23066C11.2186 4.70214 9.69406 3.65371 8.0779 3.65371C6.46174 3.65371 4.93719 4.70214 4.93719 6.23066Z" stroke="white"/>
</svg>
