<svg width="118" height="97" viewBox="0 0 118 97" fill="none" xmlns="http://www.w3.org/2000/svg">
<g clip-path="url(#clip0_10_105)">
<path fill-rule="evenodd" clip-rule="evenodd" d="M6.76831 55.2724L23.3479 60.4742L30.8895 57.9938L30.9699 59.9219L59.3389 68.8293L87.718 59.9119L87.7079 57.9035L93.6629 59.711L110.062 54.5996L110.122 32.3563L93.9039 30.5587L87.738 21.9024L59.2786 18.7793L30.8293 21.9225L25.5873 31.5027L23.3479 31.1311L6.76831 33.1797V55.2724Z" fill="#2B2A29"/>
<path fill-rule="evenodd" clip-rule="evenodd" d="M23.8199 37.9196L49.7487 45.9533L57.7724 29.2332L31.7633 24.0012L23.8199 37.9196Z" fill="#D7B56D"/>
<path fill-rule="evenodd" clip-rule="evenodd" d="M94.4865 33.9831L72.2632 41.0628L62.2914 28.8917L87.0955 23.479L94.4865 33.9831Z" fill="#D7B56D"/>
<path fill-rule="evenodd" clip-rule="evenodd" d="M32.7574 58.1244L58.3046 66.2685V33.2098L50.8735 48.4337L32.7574 42.7599V58.1244Z" fill="#D7B56D"/>
<path fill-rule="evenodd" clip-rule="evenodd" d="M86.041 58.1244L60.4938 66.2685V29.6951L71.0179 43.1515L86.041 38.4418V58.1244Z" fill="#D7B56D"/>
<path fill-rule="evenodd" clip-rule="evenodd" d="M92.9199 58.2348L87.5975 56.3971V38.02L92.2872 36.4836L92.9199 36.6041V58.2348Z" fill="#D7B56D"/>
<path fill-rule="evenodd" clip-rule="evenodd" d="M109.048 53.4045L94.155 58.2649L94.3458 36.6542L109.027 33.4508L109.048 53.4045Z" fill="#D7B56D"/>
<path fill-rule="evenodd" clip-rule="evenodd" d="M24.0811 58.9277L30.8997 56.6281L30.8695 42.1574L24.0811 39.9983V58.9277Z" fill="#D7B56D"/>
<path fill-rule="evenodd" clip-rule="evenodd" d="M7.95337 54.0975L22.8358 58.9579L22.6751 39.4962L21.44 39.0845L22.4944 37.307L7.96341 34.1437L7.95337 54.0975Z" fill="#D7B56D"/>
<path fill-rule="evenodd" clip-rule="evenodd" d="M107.883 55.2824L93.4922 62.2919L87.6477 60.5947L59.0879 71.4603L30.7992 60.6952L23.1471 63.2258L10.7651 56.5277L23.3479 60.4742L30.8896 57.9938L30.9699 59.9219L59.3389 68.8293L87.718 59.9119L87.708 57.9034L93.663 59.711L107.883 55.2824Z" fill="#E6E6E6"/>
<path fill-rule="evenodd" clip-rule="evenodd" d="M57.8928 0.000488281H60.805V2.91271H57.8928V0.000488281Z" fill="#EF7F1A"/>
<path fill-rule="evenodd" clip-rule="evenodd" d="M41.6245 11.6393H44.5468V14.5516H41.6245V11.6393Z" fill="#EF7F1A"/>
<path fill-rule="evenodd" clip-rule="evenodd" d="M61.9197 18.1064H69.2203V25.4071H61.9197V18.1064Z" fill="#EF7F1A"/>
<path fill-rule="evenodd" clip-rule="evenodd" d="M42.1367 18.5583H47.0373V23.4589H42.1367V18.5583Z" fill="#8CC540"/>
<path fill-rule="evenodd" clip-rule="evenodd" d="M62.3214 7.47186H67.222V12.3724H62.3214V7.47186Z" fill="#8CC540"/>
<path fill-rule="evenodd" clip-rule="evenodd" d="M47.9009 4.52948H53.4542V10.0828H47.9009V4.52948Z" fill="#A82682"/>
<path fill-rule="evenodd" clip-rule="evenodd" d="M71.8514 16.7709H75.8683V20.7777H71.8514V16.7709Z" fill="#A82682"/>
<path fill-rule="evenodd" clip-rule="evenodd" d="M77.5955 13.1557H80.8089V16.3792H77.5955V13.1557Z" fill="#E5097F"/>
<path fill-rule="evenodd" clip-rule="evenodd" d="M71.3794 5.99567H74.5929V9.20915H71.3794V5.99567Z" fill="#00A0E3"/>
<path fill-rule="evenodd" clip-rule="evenodd" d="M36.001 19.8438H39.2145V23.0673H36.001V19.8438Z" fill="#E5097F"/>
<path fill-rule="evenodd" clip-rule="evenodd" d="M62.3214 10.364H63.9282V12.3724H62.3214V10.364Z" fill="#00883E"/>
<path fill-rule="evenodd" clip-rule="evenodd" d="M61.9197 18.1064H63.9281V20.4965H61.9197V18.1064Z" fill="#01651C"/>
<path fill-rule="evenodd" clip-rule="evenodd" d="M19.2809 22.0831H21.7613V24.5535H19.2809V22.0831Z" fill="#EF7F1A"/>
<path fill-rule="evenodd" clip-rule="evenodd" d="M19.7126 27.9578H23.8701V32.1152H19.7126V27.9578Z" fill="#8CC540"/>
<path fill-rule="evenodd" clip-rule="evenodd" d="M14.5109 31.5027H17.2423V34.2341H14.5109V31.5027Z" fill="#E5097F"/>
<path fill-rule="evenodd" clip-rule="evenodd" d="M96.4146 29.7151H99.8188V33.1194H96.4146V29.7151Z" fill="#A82682"/>
<path fill-rule="evenodd" clip-rule="evenodd" d="M101.285 26.6423H104.016V29.3737H101.285V26.6423Z" fill="#E5097F"/>
<path fill-rule="evenodd" clip-rule="evenodd" d="M96.0128 20.5568H98.7443V23.2882H96.0128V20.5568Z" fill="#00A0E3"/>
<path fill-rule="evenodd" clip-rule="evenodd" d="M0.502075 74.252H65.4245V89.4257H0.502075V74.252Z" fill="#FEFEFE" stroke="#2B2A29" stroke-width="1.00003"/>
<path fill-rule="evenodd" clip-rule="evenodd" d="M65.4244 74.252H117.483V89.4257H65.4244V74.252Z" fill="#2B2A29" stroke="#2B2A29" stroke-width="1.00003"/>
<path d="M4.82014 85.1076H10.042C10.504 85.1076 10.8655 85.0875 11.1266 85.0473C11.3877 85.0072 11.5986 84.9469 11.7492 84.8666C12.1208 84.6557 12.3116 84.3444 12.3116 83.9226C12.3116 83.6916 12.2413 83.4707 12.1107 83.2799C11.9802 83.0791 11.7994 82.9385 11.5685 82.828C11.4479 82.7678 11.2772 82.7276 11.0663 82.6975C10.8555 82.6673 10.6145 82.6473 10.3333 82.6473H8.22442C7.53152 82.6473 6.95911 82.597 6.49718 82.4866C6.03524 82.3761 5.65364 82.2054 5.35237 81.9744C5.01094 81.7033 4.7398 81.3719 4.55904 80.9803C4.36824 80.5786 4.26782 80.1668 4.26782 79.725C4.26782 79.0522 4.44858 78.4697 4.82014 77.9475C5.18166 77.4253 5.66368 77.0739 6.27625 76.8931C6.4068 76.8529 6.54739 76.8128 6.68798 76.7826C6.83861 76.7525 7.00933 76.7324 7.20013 76.7124C7.39093 76.7023 7.61185 76.6923 7.86291 76.6822C8.11396 76.6822 8.40518 76.6822 8.73657 76.6822H14.4104V78.5099H9.28889C9.01775 78.5099 8.79682 78.5099 8.64619 78.5199C8.48552 78.5199 8.36501 78.53 8.25455 78.53C8.15413 78.54 8.06375 78.54 8.0035 78.5501C7.9332 78.5601 7.85286 78.5802 7.76249 78.6003C7.52147 78.6505 7.33067 78.771 7.19008 78.9618C7.05954 79.1526 6.98924 79.3836 6.98924 79.6447C6.98924 79.8857 7.03945 80.0865 7.15996 80.2673C7.27042 80.438 7.43109 80.5685 7.64198 80.6489C7.8127 80.7192 7.99345 80.7694 8.17421 80.7895C8.36501 80.8095 8.66628 80.8196 9.078 80.8196H10.9157C11.7492 80.8196 12.412 80.8798 12.9141 81.0104C13.4162 81.1409 13.838 81.3518 14.1694 81.6631C14.4305 81.8941 14.6413 82.2255 14.792 82.6272C14.9527 83.0389 15.0229 83.4707 15.0229 83.9126C15.0229 84.4649 14.8924 84.977 14.6313 85.449C14.3702 85.921 14.0087 86.2825 13.5668 86.5235C13.4262 86.6039 13.2756 86.6741 13.1049 86.7244C12.9342 86.7746 12.7233 86.8147 12.4923 86.8449C12.2614 86.875 11.9902 86.9051 11.6789 86.9152C11.3676 86.9352 10.9961 86.9352 10.5743 86.9352H4.82014V85.1076ZM19.1302 82.818C19.1302 83.3201 19.1804 83.7117 19.2808 83.9829C19.3712 84.264 19.5319 84.495 19.7628 84.6958C19.9938 84.8666 20.275 85.0072 20.6265 85.1176C20.9779 85.2281 21.3395 85.2783 21.7211 85.2783C22.2834 85.2783 22.7654 85.1879 23.1671 85.0172C23.5688 84.8465 23.85 84.6055 24.0107 84.2942C24.081 84.1536 24.1312 83.9628 24.1613 83.7218C24.2015 83.4908 24.2215 83.1895 24.2215 82.818V76.6621H26.6718V82.7075C26.6718 83.541 26.5714 84.2138 26.3806 84.736C26.1898 85.2482 25.8685 85.68 25.4366 86.0114C24.9747 86.3528 24.4425 86.6039 23.8299 86.7645C23.2173 86.9352 22.4943 87.0156 21.6708 87.0156C19.8633 87.0156 18.5477 86.644 17.7243 85.9009C17.5335 85.7101 17.3628 85.5293 17.2222 85.3385C17.0916 85.1377 16.9812 84.9268 16.9008 84.6958C16.8205 84.4548 16.7602 84.1937 16.7301 83.8925C16.6899 83.5912 16.6799 83.2498 16.6799 82.8581V76.6621H19.1302V82.818ZM31.3314 86.9352H28.8711V76.6822H34.5951C35.0972 76.6822 35.529 76.6923 35.8805 76.7124C36.2319 76.7425 36.5432 76.7927 36.8043 76.863C37.0554 76.9333 37.2864 77.0337 37.4772 77.1542C37.678 77.2747 37.8688 77.4354 38.0596 77.6161C38.7525 78.2789 39.0939 79.0823 39.0939 80.0162C39.0939 80.5585 38.9835 81.0706 38.7626 81.5426C38.5316 82.0146 38.2303 82.3962 37.8286 82.6975C37.6579 82.818 37.4872 82.9184 37.3165 83.0088C37.1558 83.0991 36.9751 83.1694 36.7742 83.2197C36.5734 83.2699 36.3424 83.3 36.0913 83.3201C35.8403 83.3402 35.5591 83.3502 35.2378 83.3502H31.3314V86.9352ZM34.6352 81.5225C34.9666 81.5225 35.2277 81.5024 35.4286 81.4623C35.6294 81.4221 35.7901 81.3418 35.9206 81.2313C36.0813 81.1208 36.2018 80.9501 36.2821 80.7192C36.3725 80.4882 36.4127 80.2271 36.4127 79.9359C36.4127 79.6045 36.3424 79.3133 36.1918 79.0823C36.0411 78.8413 35.8403 78.6806 35.5792 78.6003C35.3784 78.54 35.0871 78.5099 34.6854 78.5099H31.3314V81.5225H34.6352ZM49.2465 78.5099H46.0732C45.6615 78.5099 45.3 78.5199 45.0088 78.5501C44.7175 78.5701 44.4665 78.6103 44.2556 78.6706C44.0447 78.7308 43.864 78.8011 43.7133 78.9015C43.5627 79.002 43.4321 79.1225 43.3016 79.2631C43.2112 79.3635 43.1409 79.4639 43.0907 79.5543C43.0405 79.6447 42.9903 79.7551 42.9602 79.8656C42.92 79.9861 42.8999 80.1267 42.8698 80.2974C42.8497 80.4581 42.8296 80.669 42.8095 80.92H49.2465V82.7577H42.8095C42.8497 83.1996 42.9401 83.5611 43.0807 83.8624C43.2213 84.1636 43.4221 84.4046 43.6832 84.5854C43.9443 84.7661 44.2757 84.9067 44.6874 84.9871C45.0891 85.0674 45.5912 85.1076 46.1736 85.1076H49.2465V86.9352H46.0732C45.4607 86.9352 44.9284 86.9152 44.4665 86.875C43.9945 86.8348 43.5928 86.7746 43.2313 86.6842C42.8798 86.5938 42.5685 86.4833 42.2974 86.3327C42.0262 86.1821 41.7752 86.0013 41.5543 85.7904C41.0622 85.3285 40.6806 84.7461 40.4296 84.0632C40.1685 83.3803 40.0379 82.597 40.0379 81.7435C40.0379 79.9057 40.6906 78.4898 41.976 77.5057C42.1869 77.355 42.3878 77.2245 42.5987 77.114C42.8095 77.0036 43.0305 76.9232 43.2815 76.863C43.5225 76.8027 43.7937 76.7525 44.0949 76.7224C44.3862 76.6923 44.7376 76.6822 45.1192 76.6822H49.2465V78.5099ZM53.6249 86.9352H51.1746V76.6822H56.7681C57.6418 76.6822 58.3447 76.7224 58.887 76.8128C59.4192 76.9132 59.8611 77.0638 60.2025 77.2747C60.6042 77.5258 60.9155 77.8471 61.1465 78.2388C61.3674 78.6304 61.4779 79.0723 61.4779 79.5442C61.4779 81.0907 60.7448 82.0849 59.2786 82.5368C59.9615 82.7075 60.4737 83.0188 60.805 83.4807C61.1364 83.9527 61.3272 84.5854 61.3774 85.3888C61.3975 85.6197 61.4176 85.8206 61.4377 85.9812C61.4477 86.1419 61.4678 86.2725 61.4879 86.3829C61.508 86.4833 61.5281 86.5838 61.5582 86.6741C61.5883 86.7545 61.6185 86.8449 61.6486 86.9352H58.897C58.8569 86.8248 58.8267 86.7344 58.8167 86.6641C58.8067 86.5938 58.7866 86.5034 58.7665 86.3829C58.7364 86.2423 58.7163 86.0817 58.7062 85.9009C58.6861 85.7201 58.6761 85.5796 58.656 85.4791C58.6058 85.0172 58.5154 84.6256 58.3849 84.3142C58.2644 84.0029 58.0836 83.7519 57.8426 83.5611C57.6016 83.3703 57.3003 83.2397 56.9288 83.1594C56.5572 83.0891 56.1053 83.0489 55.5731 83.0489H53.6249V86.9352ZM57.0192 81.2213C57.6518 81.2213 58.0937 81.1108 58.3648 80.8899C58.6259 80.669 58.7665 80.3074 58.7665 79.8053C58.7665 79.1626 58.4853 78.7609 57.933 78.5902C57.7221 78.53 57.4208 78.5099 57.0192 78.5099H53.6249V81.2213H57.0192Z" fill="#2B2A29"/>
<path d="M71.6205 86.9754H69.1602V76.7123H74.8842C75.3863 76.7123 75.8181 76.7224 76.1696 76.7425C76.521 76.7726 76.8323 76.8228 77.0834 76.8931C77.3445 76.9634 77.5755 77.0638 77.7663 77.1843C77.9571 77.3048 78.1579 77.4655 78.3487 77.6463C79.0416 78.309 79.383 79.1124 79.383 80.0463C79.383 80.5886 79.2726 81.1008 79.0416 81.5727C78.8207 82.0447 78.5094 82.4263 78.1077 82.7276C77.937 82.8481 77.7763 82.9485 77.6056 83.0389C77.4449 83.1293 77.2642 83.1996 77.0633 83.2498C76.8625 83.3 76.6315 83.3301 76.3805 83.3502C76.1294 83.3703 75.8482 83.3904 75.5269 83.3904H71.6205V86.9754ZM74.9243 81.5527C75.2557 81.5527 75.5168 81.5326 75.7177 81.4924C75.9185 81.4522 76.0792 81.3719 76.2097 81.2614C76.3604 81.151 76.4909 80.9802 76.5713 80.7493C76.6616 80.5183 76.7018 80.2572 76.7018 79.966C76.7018 79.6346 76.6315 79.3434 76.4809 79.1124C76.3302 78.8714 76.1294 78.7107 75.8583 78.6304C75.6675 78.5701 75.3762 78.54 74.9746 78.54H71.6205V81.5527H74.9243ZM83.5505 76.7123H86.3523L91.0922 86.9754H88.2503L87.1456 84.5854H82.7873L81.6827 86.9754H78.8106L83.5505 76.7123ZM83.3296 82.7577H86.5933L84.9665 79.1727L83.3296 82.7577ZM100.542 86.9754H96.5551C96.063 86.9754 95.6312 86.9553 95.2496 86.9151C94.8781 86.885 94.5366 86.8248 94.2454 86.7444C93.9441 86.6741 93.673 86.5637 93.432 86.4432C93.191 86.3126 92.96 86.1519 92.7391 85.9511C92.247 85.5193 91.8654 84.967 91.6043 84.2741C91.3432 83.5912 91.2127 82.7878 91.2127 81.864C91.2127 80.6991 91.4336 79.7149 91.8755 78.9015C92.3073 78.0881 92.9399 77.5057 93.7634 77.1743C94.0948 77.0236 94.5165 76.9132 95.0387 76.8328C95.5609 76.7525 96.1032 76.7123 96.6656 76.7123H100.542V78.54H96.9568C95.822 78.54 95.0086 78.8111 94.5165 79.3735C94.3257 79.5743 94.1751 79.8756 94.0747 80.2673C93.9843 80.6689 93.9341 81.1309 93.9341 81.6631C93.9341 82.4263 94.0245 83.059 94.1952 83.5711C94.376 84.0833 94.6371 84.4548 94.9785 84.6758C95.4304 84.9871 96.1132 85.1377 97.0371 85.1377H100.542V86.9754ZM104.649 86.9754H102.199V76.7123H104.649V86.9754ZM109.098 76.7123H112.301L107.521 81.7736L112.07 86.9754H108.857L104.719 81.7736L109.098 76.7123Z" fill="#FEFEFE"/>
<path d="M66.8706 75.4872H116.037" stroke="#FEFEFE" stroke-width="0.500015"/>
<path d="M66.8706 88.1905H116.037" stroke="#FEFEFE" stroke-width="0.500015"/>
<path d="M0.893779 95.7824H2.99258C3.17334 95.7824 3.31393 95.7723 3.4244 95.7623C3.52482 95.7422 3.6152 95.7221 3.66541 95.6819C3.82608 95.6016 3.89638 95.4811 3.89638 95.3104C3.89638 95.21 3.86625 95.1296 3.81604 95.0493C3.76583 94.9689 3.69553 94.9087 3.60515 94.8685C3.55494 94.8484 3.48465 94.8284 3.39427 94.8183C3.31393 94.7982 3.21351 94.7982 3.10305 94.7982H2.25951C1.97833 94.7982 1.74736 94.7781 1.5666 94.7279C1.3758 94.6878 1.22517 94.6175 1.10466 94.5271C0.964073 94.4166 0.863652 94.2861 0.783315 94.1254C0.71302 93.9647 0.672852 93.8041 0.672852 93.6233C0.672852 93.3522 0.743147 93.1212 0.893779 92.9103C1.03437 92.6994 1.23521 92.5588 1.47622 92.4885C1.52643 92.4685 1.58669 92.4584 1.64694 92.4484C1.70719 92.4283 1.76744 92.4182 1.84778 92.4182C1.91808 92.4082 2.00846 92.4082 2.10888 92.4082C2.2093 92.3982 2.3298 92.3982 2.46035 92.3982H4.73992V93.1312H2.68128C2.57081 93.1312 2.49048 93.1413 2.43023 93.1413C2.35993 93.1413 2.30972 93.1413 2.26955 93.1413C2.22938 93.1513 2.19926 93.1513 2.16913 93.1513C2.139 93.1614 2.10888 93.1614 2.06871 93.1714C1.97833 93.1915 1.89799 93.2417 1.84778 93.322C1.78753 93.3923 1.7574 93.4827 1.7574 93.5932C1.7574 93.6836 1.78753 93.7739 1.8277 93.8442C1.87791 93.9145 1.93816 93.9647 2.0185 93.9949C2.08879 94.025 2.15909 94.0451 2.23942 94.0451C2.30972 94.0551 2.43023 94.0652 2.60094 94.0652H3.33402C3.66541 94.0652 3.93655 94.0852 4.13739 94.1355C4.33823 94.1857 4.50895 94.276 4.63949 94.4066C4.74996 94.497 4.8303 94.6275 4.89055 94.7882C4.9508 94.9589 4.99097 95.1296 4.99097 95.3003C4.99097 95.5213 4.93072 95.7322 4.8303 95.923C4.71983 96.1138 4.57924 96.2543 4.39848 96.3548C4.34827 96.3849 4.28802 96.415 4.21773 96.4351C4.14743 96.4552 4.06709 96.4652 3.96667 96.4853C3.87629 96.4954 3.76583 96.5054 3.64532 96.5054C3.51478 96.5154 3.37419 96.5154 3.20347 96.5154H0.893779V95.7824ZM23.9405 93.1312H22.6651C22.4944 93.1312 22.3538 93.1413 22.2333 93.1513C22.1229 93.1614 22.0224 93.1814 21.9321 93.2015C21.8517 93.2216 21.7814 93.2517 21.7212 93.2919C21.6609 93.3321 21.6007 93.3823 21.5504 93.4425C21.5103 93.4827 21.4902 93.5229 21.4701 93.553C21.44 93.5932 21.4299 93.6333 21.4099 93.6836C21.3998 93.7338 21.3898 93.784 21.3797 93.8543C21.3697 93.9145 21.3596 94.0049 21.3496 94.1053H23.9405V94.8384H21.3496C21.3697 95.0192 21.4099 95.1698 21.4601 95.2803C21.5203 95.4008 21.6007 95.5012 21.7011 95.5715C21.8115 95.6518 21.9421 95.702 22.1028 95.7322C22.2735 95.7723 22.4643 95.7824 22.7053 95.7824H23.9405V96.5154H22.6651C22.4141 96.5154 22.2032 96.5154 22.0124 96.4954C21.8316 96.4753 21.671 96.4552 21.5203 96.415C21.3797 96.3849 21.2592 96.3347 21.1488 96.2744C21.0383 96.2142 20.9379 96.1439 20.8475 96.0535C20.6467 95.8727 20.496 95.6418 20.3956 95.3606C20.2952 95.0895 20.245 94.7781 20.245 94.4367C20.245 93.6936 20.5061 93.1312 21.0182 92.7396C21.0986 92.6693 21.1889 92.6191 21.2693 92.5789C21.3496 92.5388 21.44 92.4986 21.5404 92.4785C21.6408 92.4484 21.7513 92.4283 21.8718 92.4182C21.9923 92.4082 22.1229 92.3982 22.2835 92.3982H23.9405V93.1312ZM40.4899 96.5154H39.5058V92.3982H41.7452C42.0967 92.3982 42.3778 92.4182 42.5988 92.4584C42.8097 92.4986 42.9904 92.5588 43.131 92.6392C43.2917 92.7396 43.4122 92.8701 43.5026 93.0308C43.5929 93.1814 43.6431 93.3622 43.6431 93.553C43.6431 94.1756 43.3419 94.5773 42.7594 94.7581C43.0306 94.8183 43.2314 94.9489 43.372 95.1296C43.5026 95.3204 43.5829 95.5715 43.5929 95.8928C43.603 95.9932 43.613 96.0736 43.6231 96.1338C43.6231 96.1941 43.6331 96.2543 43.6431 96.2945C43.6532 96.3347 43.6532 96.3748 43.6733 96.415C43.6833 96.4451 43.6934 96.4853 43.7034 96.5154H42.6088C42.5887 96.4753 42.5787 96.4351 42.5686 96.405C42.5686 96.3748 42.5586 96.3447 42.5486 96.2945C42.5385 96.2443 42.5285 96.174 42.5285 96.1037C42.5184 96.0334 42.5084 95.9732 42.5084 95.933C42.4883 95.7522 42.4481 95.5916 42.3979 95.4711C42.3477 95.3405 42.2774 95.2401 42.177 95.1597C42.0866 95.0895 41.9561 95.0392 41.8155 94.9991C41.6648 94.9689 41.4841 94.9589 41.2632 94.9589H40.4899V96.5154ZM41.8456 94.2258C42.1067 94.2258 42.2774 94.1756 42.3879 94.0852C42.4983 94.0049 42.5486 93.8543 42.5486 93.6534C42.5486 93.4024 42.4381 93.2417 42.2172 93.1714C42.1268 93.1413 42.0063 93.1312 41.8456 93.1312H40.4899V94.2258H41.8456ZM61.5483 96.5154H60.5641L58.6361 92.3982H59.7306L61.0863 95.5012L62.4621 92.3982H63.5567L61.5483 96.5154ZM78.8408 92.3982H79.825V96.5154H78.8408V92.3982ZM99.0356 96.5154H97.4389C97.2481 96.5154 97.0673 96.5154 96.9167 96.4954C96.766 96.4853 96.6255 96.4652 96.515 96.4251C96.3945 96.3949 96.284 96.3548 96.1836 96.3046C96.0832 96.2543 95.9928 96.1941 95.9024 96.1138C95.7116 95.943 95.561 95.7121 95.4505 95.4409C95.3501 95.1597 95.2999 94.8384 95.2999 94.4668C95.2999 94.0049 95.3802 93.6032 95.561 93.2819C95.7317 92.9505 95.9928 92.7195 96.3141 92.589C96.4547 92.5287 96.6255 92.4785 96.8263 92.4484C97.0372 92.4182 97.2581 92.3982 97.479 92.3982H99.0356V93.1312H97.5995C97.1476 93.1312 96.8162 93.2517 96.6255 93.4727C96.5451 93.553 96.4849 93.6735 96.4447 93.8342C96.4045 93.9848 96.3844 94.1756 96.3844 94.3865C96.3844 94.6978 96.4246 94.9489 96.4949 95.1597C96.5652 95.3606 96.6656 95.5112 96.8062 95.6016C96.987 95.7221 97.2581 95.7824 97.6297 95.7824H99.0356V96.5154ZM117.965 93.1312H116.69C116.529 93.1312 116.388 93.1413 116.268 93.1513C116.157 93.1614 116.057 93.1814 115.967 93.2015C115.886 93.2216 115.806 93.2517 115.746 93.2919C115.685 93.3321 115.635 93.3823 115.585 93.4425C115.545 93.4827 115.515 93.5229 115.495 93.553C115.475 93.5932 115.464 93.6333 115.444 93.6836C115.434 93.7338 115.424 93.784 115.414 93.8543C115.404 93.9145 115.394 94.0049 115.384 94.1053H117.965V94.8384H115.384C115.404 95.0192 115.444 95.1698 115.495 95.2803C115.555 95.4008 115.635 95.5012 115.736 95.5715C115.846 95.6518 115.977 95.702 116.137 95.7322C116.298 95.7723 116.499 95.7824 116.74 95.7824H117.965V96.5154H116.69C116.449 96.5154 116.238 96.5154 116.047 96.4954C115.866 96.4753 115.695 96.4552 115.555 96.415C115.414 96.3849 115.294 96.3347 115.183 96.2744C115.073 96.2142 114.972 96.1439 114.882 96.0535C114.681 95.8727 114.531 95.6418 114.43 95.3606C114.33 95.0895 114.28 94.7781 114.28 94.4367C114.28 93.6936 114.531 93.1312 115.053 92.7396C115.133 92.6693 115.223 92.6191 115.304 92.5789C115.384 92.5388 115.475 92.4986 115.575 92.4785C115.675 92.4484 115.786 92.4283 115.906 92.4182C116.017 92.4082 116.157 92.3982 116.318 92.3982H117.965V93.1312Z" fill="#898989"/>
</g>
<defs>
<clipPath id="clip0_10_105">
<rect width="117.975" height="96.5159" fill="white"/>
</clipPath>
</defs>
</svg>
