<svg width="128" height="128" viewBox="0 0 128 128" fill="none" xmlns="http://www.w3.org/2000/svg">
<path d="M110 91.4231H18C17.5359 91.4231 17.0908 91.6075 16.7626 91.9357C16.4344 92.2639 16.25 92.709 16.25 93.1731V99.3921C16.2503 99.8561 16.4347 100.301 16.7629 100.629C17.091 100.957 17.536 101.142 18 101.142H110C110.464 101.142 110.909 100.958 111.237 100.63C111.566 100.301 111.75 99.8562 111.75 99.3921V93.1731C111.75 92.9432 111.705 92.7156 111.617 92.5033C111.529 92.2909 111.4 92.0979 111.238 91.9354C111.075 91.7728 110.882 91.6439 110.67 91.556C110.457 91.4681 110.23 91.423 110 91.4231ZM108.25 94.9231V97.6421H19.75V94.9231H108.25Z" fill="black"/>
<path d="M110 108.25H18C17.5359 108.25 17.0908 108.434 16.7626 108.763C16.4344 109.091 16.25 109.536 16.25 110C16.25 110.464 16.4344 110.909 16.7626 111.237C17.0908 111.566 17.5359 111.75 18 111.75H110C110.464 111.75 110.909 111.566 111.237 111.237C111.566 110.909 111.75 110.464 111.75 110C111.75 109.536 111.566 109.091 111.237 108.763C110.909 108.434 110.464 108.25 110 108.25Z" fill="black"/>
<path d="M36.8 85.771H36.907C38.0549 85.76 39.1887 85.5179 40.2409 85.0589C41.2931 84.6 42.242 83.9338 43.031 83.1L67.763 57.142L68.193 57.573C68.3554 57.7357 68.5483 57.8647 68.7607 57.9527C68.973 58.0408 69.2006 58.0861 69.4305 58.0861C69.6604 58.0861 69.888 58.0408 70.1003 57.9527C70.3127 57.8647 70.5056 57.7357 70.668 57.573L74.028 54.213C74.8246 54.6878 75.709 54.9967 76.628 55.121C77.3779 55.2174 78.075 55.5587 78.611 56.092L79.39 56.87C79.1607 57.5605 79.1278 58.3012 79.295 59.0093C79.4622 59.7174 79.823 60.3651 80.337 60.88L84.808 65.351C85.1361 65.679 85.5811 65.8632 86.045 65.8632C86.5089 65.8632 86.9538 65.679 87.282 65.351L99.282 53.351C99.4446 53.1886 99.5737 52.9957 99.6617 52.7834C99.7497 52.571 99.795 52.3434 99.795 52.1135C99.795 51.8837 99.7497 51.6561 99.6617 51.4437C99.5737 51.2314 99.4446 51.0385 99.282 50.876L94.819 46.4C94.4565 46.0356 94.0252 45.7466 93.5503 45.5499C93.0753 45.3532 92.5661 45.2526 92.052 45.254C91.6303 45.2537 91.2112 45.3212 90.811 45.454L90.033 44.677C89.499 44.1413 89.1578 43.4435 89.063 42.693C88.8672 41.1731 88.175 39.7603 87.094 38.674L65.182 16.763C65.0196 16.6004 64.8267 16.4714 64.6143 16.3833C64.402 16.2953 64.1744 16.25 63.9445 16.25C63.7146 16.25 63.487 16.2953 63.2747 16.3833C63.0623 16.4714 62.8694 16.6004 62.707 16.763L58.887 20.582C58.626 20.8429 58.4542 21.1797 58.3962 21.5441C58.3382 21.9086 58.3969 22.282 58.564 22.611L58.664 22.811C59.6586 24.7573 60.0101 26.9689 59.6679 29.1275C59.3258 31.2862 58.3076 33.2807 56.76 34.824C56.5974 34.9865 56.4683 35.1794 56.3803 35.3917C56.2923 35.6041 56.247 35.8317 56.247 36.0615C56.247 36.2914 56.2923 36.519 56.3803 36.7314C56.4683 36.9437 56.5974 37.1366 56.76 37.299L59.747 40.286L56.563 43.469C56.2351 43.7972 56.0509 44.2421 56.0509 44.706C56.0509 45.17 56.2351 45.6149 56.563 45.943L56.824 46.204L30.866 70.936C29.6216 72.1223 28.761 73.6542 28.3953 75.3341C28.0295 77.014 28.1753 78.7649 28.8138 80.3612C29.4523 81.9575 30.5543 83.326 31.9777 84.2902C33.4011 85.2544 35.0807 85.7702 36.8 85.771ZM62.23 22.188L63.944 20.475L84.617 41.146C85.1501 41.6827 85.4917 42.3799 85.589 43.13C85.782 44.6511 86.4745 46.0651 87.558 47.15L89.282 48.875C89.4444 49.0377 89.6373 49.1667 89.8497 49.2547C90.062 49.3428 90.2896 49.3881 90.5195 49.3881C90.7494 49.3881 90.977 49.3428 91.1893 49.2547C91.4017 49.1667 91.5946 49.0377 91.757 48.875C91.835 48.7971 91.9407 48.7533 92.051 48.7533C92.1613 48.7533 92.267 48.7971 92.345 48.875L95.579 52.109L86.049 61.639L82.815 58.405C82.7376 58.3268 82.6941 58.2211 82.6941 58.111C82.6941 58.0009 82.7376 57.8953 82.815 57.817C82.9776 57.6547 83.1066 57.4619 83.1946 57.2496C83.2826 57.0374 83.328 56.8098 83.328 56.58C83.328 56.3503 83.2826 56.1227 83.1946 55.9105C83.1066 55.6982 82.9776 55.5054 82.815 55.343L81.089 53.616C80.0026 52.5348 78.5893 51.8429 77.069 51.648C76.3195 51.5527 75.6229 51.2116 75.088 50.678L60.4 35.984C61.8988 34.0523 62.858 31.7572 63.1795 29.3334C63.5011 26.9095 63.1734 24.4438 62.23 22.188ZM71.376 51.915L69.431 53.861L60.276 44.706L62.221 42.76L71.376 51.915ZM33.28 73.469L59.3 48.679L65.288 54.667L40.5 80.687C40.0317 81.1815 39.4685 81.5765 38.8441 81.8485C38.2198 82.1205 37.547 82.2638 36.866 82.27C35.4936 82.266 34.1767 81.728 33.194 80.77C32.7128 80.2886 32.3327 79.7158 32.0761 79.0853C31.8195 78.4549 31.6916 77.7794 31.6999 77.0988C31.7082 76.4182 31.8525 75.746 32.1244 75.122C32.3963 74.498 32.7902 73.9346 33.283 73.465L33.28 73.469Z" fill="black"/>
</svg>
