<svg width="128" height="128" viewBox="0 0 128 128" fill="none" xmlns="http://www.w3.org/2000/svg">
<g clip-path="url(#clip0_10_188)">
<path d="M26.75 47.5001C26.75 68.1778 43.5723 85.0001 64.2501 85.0001C84.9278 85.0001 101.75 68.1778 101.75 47.5001C101.75 26.8223 84.9278 10 64.2501 10C43.5723 10 26.75 26.8223 26.75 47.5001ZM64.2501 15C82.171 15 96.7501 29.5791 96.7501 47.5001C96.7501 65.421 82.171 80.0001 64.2501 80.0001C46.3291 80.0001 31.75 65.421 31.75 47.5001C31.75 29.5791 46.3291 15 64.2501 15Z" fill="#020202"/>
<path d="M41.0976 43.043L50.788 52.5909L48.5585 66.0098C48.4033 66.9444 48.789 67.8858 49.5556 68.4425C50.3212 68.9991 51.3359 69.0743 52.1767 68.6387L64.25 62.3692L76.3223 68.6387C77.1563 69.0714 78.1709 69.004 78.9434 68.4425C79.71 67.8858 80.0957 66.9444 79.9404 66.0098L77.7109 52.5909L87.4014 43.043C88.0762 42.3789 88.3174 41.3907 88.0244 40.4893C87.7315 39.5889 86.9551 38.9317 86.0186 38.7901L72.5703 36.7656L66.4853 24.5967C66.0625 23.75 65.1963 23.2148 64.25 23.2148C63.3027 23.2148 62.4375 23.75 62.0137 24.5967L55.9287 36.7656L42.4804 38.7901C41.5439 38.9307 40.7675 39.5889 40.4746 40.4893C40.1816 41.3907 40.4238 42.3789 41.0976 43.043ZM57.957 41.5166C58.7617 41.3955 59.457 40.8907 59.8213 40.1631L64.25 31.3047L68.6787 40.1631C69.043 40.8907 69.7383 41.3955 70.543 41.5166L80.3311 42.9903L73.2773 49.9385C72.6982 50.5098 72.4326 51.3272 72.5654 52.1299L74.1885 61.8965L65.4014 57.334C65.041 57.1465 64.6455 57.0528 64.25 57.0528C63.8545 57.0528 63.459 57.1465 63.0976 57.334L54.3105 61.8965L55.9336 52.1299C56.0674 51.3272 55.8017 50.5098 55.2216 49.9385L48.1689 42.9903L57.957 41.5166Z" fill="#020202"/>
<path d="M66.75 2.5C66.75 3.88087 65.6309 5.00001 64.25 5.00001C62.8691 5.00001 61.75 3.88087 61.75 2.5C61.75 1.11914 62.8691 0 64.25 0C65.6309 0 66.75 1.11914 66.75 2.5Z" fill="#020202"/>
<path d="M52.4677 1.47366C31.4374 6.84183 16.7499 25.7686 16.7499 47.5001C16.7499 60.9972 22.4247 73.715 32.3866 82.7218L17.3251 109.266C16.8407 110.12 16.9012 111.179 17.4794 111.972C18.0575 112.766 19.0458 113.148 20.0077 112.947L37.1122 109.396L43.1239 126.336C43.4501 127.258 44.2851 127.904 45.2597 127.99C46.2343 128.077 47.1689 127.586 47.6523 126.736L64.25 97.5558L80.8467 126.736C81.2939 127.522 82.126 127.999 83.0185 127.999C83.0918 127.999 83.166 127.996 83.2392 127.99C84.2139 127.904 85.0488 127.257 85.376 126.336L91.3867 109.396L108.491 112.947C109.452 113.147 110.441 112.765 111.02 111.972C111.599 111.179 111.658 110.12 111.174 109.266L96.1123 82.7218C106.074 73.715 111.749 60.9972 111.749 47.5001C111.749 25.7686 97.0615 6.84183 76.0322 1.47366C74.6933 1.13186 73.333 1.93948 72.9912 3.27737C72.6494 4.61527 73.457 5.9766 74.7949 6.31839C93.6094 11.1211 106.75 28.0557 106.75 47.5001C106.75 71.1652 87.5303 90.0002 64.25 90.0002C40.953 90.0002 21.7499 71.1495 21.7499 47.5001C21.7499 28.0557 34.8896 11.1211 53.704 6.31839C55.0419 5.9766 55.8495 4.61527 55.5087 3.27737C55.1669 1.93948 53.8066 1.13186 52.4677 1.47366ZM46.0087 119.514L41.0956 105.669C40.6777 104.491 39.455 103.803 38.2314 104.057L24.4003 106.929L36.3202 85.9211C43.2704 90.9738 51.4999 94.0519 60.0576 94.8136L46.0087 119.514ZM90.2676 104.057C89.0449 103.803 87.8213 104.491 87.4033 105.669L82.4912 119.514L68.4414 94.8136C77 94.0519 85.2285 90.9738 92.1797 85.9211L104.1 106.929L90.2676 104.057Z" fill="#020202"/>
</g>
<defs>
<clipPath id="clip0_10_188">
<rect width="128" height="128" fill="white"/>
</clipPath>
</defs>
</svg>
