<svg width="128" height="128" viewBox="0 0 128 128" fill="none" xmlns="http://www.w3.org/2000/svg">
<g clip-path="url(#clip0_10_215)">
<path d="M125.935 0H10.3225C9.18344 0 8.25804 0.9254 8.25804 2.06451V8.25804H2.06451C0.925401 8.25804 0 9.18344 0 10.3225V92.9029C0 94.0451 0.925401 94.9674 2.06451 94.9674H42.3658C44.3315 97.3434 46.7801 99.2991 49.5482 100.719V125.935C49.5482 126.769 50.0523 127.525 50.8224 127.842C51.5926 128.163 52.4797 127.985 53.0724 127.395L59.8708 120.596L66.6692 127.395C67.0633 127.789 67.5925 128 68.1288 128C68.395 128 68.6641 127.95 68.9202 127.842C69.6893 127.525 70.1933 126.769 70.1933 125.935V100.719C72.9605 99.2991 75.408 97.3455 77.3758 94.9674H117.677C118.817 94.9674 119.742 94.0451 119.742 92.9029V86.7094H125.935C127.075 86.7094 128 85.787 128 84.6449V2.06451C128 0.9254 127.075 0 125.935 0ZM66.0643 120.951L61.3305 116.217C60.523 115.41 59.2186 115.41 58.4111 116.217L53.6773 120.951V102.346C55.649 102.906 57.7216 103.225 59.8708 103.225C62.02 103.225 64.0925 102.906 66.0643 102.346V120.951ZM59.8708 99.0965C49.6269 99.0965 41.2902 90.7618 41.2902 80.5159C41.2902 70.2699 49.6269 61.9353 59.8708 61.9353C70.1147 61.9353 78.4514 70.2699 78.4514 80.5159C78.4514 90.7618 70.1147 99.0965 59.8708 99.0965ZM37.267 82.5804H24.6279C23.7197 76.2588 18.7066 71.2488 12.3871 70.3395V32.886C18.7066 31.9767 23.7197 26.9646 24.6279 20.6451H95.1166C96.0249 26.9646 101.037 31.9767 107.357 32.886V70.3415C101.037 71.2488 96.0249 76.2608 95.1166 82.5824H82.4776C82.537 81.8989 82.5804 81.2134 82.5804 80.5159C82.5804 67.9947 72.3919 57.8063 59.8708 57.8063C47.3497 57.8063 37.1612 67.9947 37.1612 80.5159C37.1612 81.2134 37.2045 81.8989 37.267 82.5804ZM115.613 90.8384H80.0744C80.7457 89.53 81.2921 88.1509 81.7014 86.7094H97.032C98.1721 86.7094 99.0965 85.787 99.0965 84.6449C99.0965 78.9534 103.728 74.3223 109.419 74.3223C110.559 74.3223 111.484 73.4 111.484 72.2578V30.9676C111.484 29.8285 110.559 28.9031 109.419 28.9031C103.728 28.9031 99.0965 24.2721 99.0965 18.5806C99.0965 17.4415 98.1721 16.5161 97.032 16.5161H22.7096C21.5705 16.5161 20.6451 17.4415 20.6451 18.5806C20.6451 24.2721 16.0151 28.9031 10.3225 28.9031C9.18344 28.9031 8.25804 29.8285 8.25804 30.9676V72.2578C8.25804 73.4 9.18344 74.3223 10.3225 74.3223C16.0151 74.3223 20.6451 78.9534 20.6451 84.6449C20.6451 85.787 21.5705 86.7094 22.7096 86.7094H38.0412C38.4495 88.1509 38.9969 89.53 39.6672 90.8384H4.12902V12.3871H115.613V90.8384ZM123.871 82.5804H119.742V10.3225C119.742 9.18344 118.817 8.25804 117.677 8.25804H12.3871V4.12902H123.871V82.5804Z" fill="black"/>
<path d="M59.871 66.0645C51.9023 66.0645 45.4194 72.5493 45.4194 80.5161H49.5485C49.5485 74.8245 54.1795 70.1935 59.871 70.1935V66.0645Z" fill="black"/>
<path d="M70.1934 80.5161C70.1934 86.2076 65.5634 90.8387 59.8708 90.8387V94.9677C67.8396 94.9677 74.3225 88.4828 74.3225 80.5161H70.1934Z" fill="black"/>
<path d="M90.8388 35.0968V26.8387C90.8388 25.6996 89.9144 24.7742 88.7743 24.7742H30.9678C29.8287 24.7742 28.9033 25.6996 28.9033 26.8387V35.0968C28.9033 36.2359 29.8287 37.1613 30.9678 37.1613H88.7743C89.9144 37.1613 90.8388 36.2359 90.8388 35.0968ZM86.7098 33.0322H33.0324V28.9032H86.7098V33.0322Z" fill="black"/>
<path d="M16.5161 41.2903H33.0322V45.4193H16.5161V41.2903Z" fill="black"/>
<path d="M16.5161 49.5483H33.0322V53.6774H16.5161V49.5483Z" fill="black"/>
<path d="M37.1614 49.5483H103.226V53.6774H37.1614V49.5483Z" fill="black"/>
<path d="M37.1614 41.2903H103.226V45.4193H37.1614V41.2903Z" fill="black"/>
</g>
<defs>
<clipPath id="clip0_10_215">
<rect width="128" height="128" fill="white"/>
</clipPath>
</defs>
</svg>
