<svg width="128" height="128" viewBox="0 0 128 128" fill="none" xmlns="http://www.w3.org/2000/svg">
<g clip-path="url(#clip0_10_197)">
<path d="M22.5127 98.9873C20.7207 98.9873 18.998 99.4346 17.4697 100.274C9.41895 89.9541 5 77.1338 5 64C5 31.4668 31.4668 5 64 5C67.9551 5 71.9082 5.39355 75.75 6.16992C77.1016 6.44336 78.4219 5.56836 78.6953 4.21484C78.9688 2.86133 78.0938 1.54297 76.7402 1.26855C72.5732 0.426758 68.2871 0 64 0C46.9053 0 30.833 6.65723 18.7451 18.7451C6.65723 30.833 0 46.9053 0 64C0 78.3799 4.88281 92.4131 13.7725 103.663C12.6279 105.373 12.0127 107.383 12.0127 109.487C12.0127 112.292 13.1055 114.929 15.0889 116.911C17.0713 118.895 19.708 119.987 22.5127 119.987C25.3174 119.987 27.9541 118.895 29.9375 116.911C31.9209 114.929 33.0127 112.291 33.0127 109.486C33.0127 106.683 31.9209 104.045 29.9375 102.062C27.9541 100.079 25.3174 98.9873 22.5127 98.9873ZM26.4014 113.376C25.3633 114.415 23.9814 114.987 22.5127 114.987C21.0439 114.987 19.6631 114.415 18.624 113.376C17.585 112.337 17.0127 110.956 17.0127 109.487C17.0127 108.018 17.585 106.637 18.624 105.598C19.6621 104.559 21.0439 103.987 22.5127 103.987C23.9814 103.987 25.3623 104.56 26.4014 105.598C27.4404 106.637 28.0127 108.018 28.0127 109.487C28.0127 110.956 27.4404 112.337 26.4014 113.376Z" fill="black"/>
<path d="M114.226 24.334C116.943 20.2568 116.507 14.6826 112.912 11.0879C110.929 9.10547 108.292 8.0127 105.487 8.0127C102.683 8.0127 100.046 9.10547 98.0626 11.0879C96.0792 13.0713 94.9874 15.708 94.9874 18.5127C94.9874 21.3174 96.0792 23.9541 98.0626 25.9375C100.046 27.9209 102.683 29.0127 105.487 29.0127C107.279 29.0127 109.002 28.5654 110.53 27.7256C118.581 38.0469 123 50.8662 123 64C123 96.5332 96.5333 123 64.0001 123C60.0841 123 56.1681 122.614 52.3624 121.853C51.0089 121.582 49.6915 122.46 49.42 123.813C49.1495 125.168 50.0275 126.484 51.381 126.756C55.5089 127.581 59.755 128 64.0001 128C81.0948 128 97.1671 121.343 109.255 109.255C121.343 97.167 128 81.0947 128 64C128 49.6191 123.116 35.585 114.226 24.334ZM101.599 22.4023C100.56 21.3633 99.9874 19.9824 99.9874 18.5127C99.9874 17.0439 100.56 15.6631 101.599 14.624C102.637 13.585 104.019 13.0127 105.487 13.0127C106.956 13.0127 108.338 13.585 109.377 14.624C111.521 16.7686 111.521 20.2578 109.377 22.4023C108.338 23.4404 106.956 24.0127 105.487 24.0127C104.018 24.0127 102.637 23.4404 101.599 22.4023Z" fill="black"/>
<path d="M53.6836 107C53.6836 108.381 54.8037 109.5 56.1836 109.5H71.8154C73.1963 109.5 74.3154 108.381 74.3154 107V102.153C77.6025 101.269 80.7451 99.9658 83.6982 98.2646L87.1201 101.687C87.5889 102.155 88.2246 102.419 88.8887 102.419C89.5508 102.419 90.1875 102.155 90.6562 101.686L101.705 90.6289C102.681 89.6523 102.681 88.0693 101.705 87.0938L98.2871 83.6758C99.9883 80.7227 101.291 77.5801 102.176 74.293H107.004C108.385 74.293 109.504 73.1738 109.504 71.793V56.1611C109.504 54.7803 108.385 53.6611 107.004 53.6611H102.175C101.29 50.375 99.9883 47.2324 98.2871 44.2793L101.687 40.8799C102.155 40.4111 102.419 39.7744 102.419 39.1113C102.418 38.4482 102.154 37.8115 101.686 37.3428L90.6279 26.2939C89.6523 25.3184 88.0693 25.3184 87.0928 26.2949L83.6982 29.6904C80.7451 27.9893 77.6025 26.6865 74.3154 25.8018V21C74.3154 19.6191 73.1963 18.5 71.8154 18.5H56.1836C54.8037 18.5 53.6836 19.6191 53.6836 21V25.8027C50.3975 26.6865 47.2549 27.9893 44.3018 29.6904L40.9063 26.2949C39.9307 25.3193 38.3477 25.3184 37.3711 26.2939L26.3145 37.3438C25.8447 37.8125 25.5811 38.4482 25.5811 39.1113C25.5811 39.7744 25.8447 40.4111 26.3135 40.8799L29.7129 44.2793C28.0117 47.2324 26.709 50.374 25.8242 53.6611H21.0049C19.624 53.6611 18.5049 54.7803 18.5049 56.1602L18.4961 71.792C18.4951 72.4551 18.7588 73.0918 19.2275 73.5605C19.6963 74.0293 20.332 74.293 20.9961 74.293H25.8242C26.709 77.5801 28.0117 80.7227 29.7129 83.6758L26.2949 87.0938C25.3193 88.0693 25.3184 89.6523 26.2949 90.6289L37.3438 101.686C37.8125 102.154 38.4482 102.419 39.1113 102.419H39.1123C39.7754 102.419 40.4111 102.155 40.8799 101.687L44.3008 98.2646C47.2549 99.9658 50.3975 101.269 53.6836 102.153V107ZM45.2813 93.0068C44.292 92.3672 42.9902 92.5059 42.1563 93.3389L39.1123 96.3828L31.5977 88.8623L34.6387 85.8203C35.4717 84.9873 35.6104 83.6855 34.9707 82.6963C32.7041 79.1885 31.1104 75.3438 30.2354 71.2676C29.9873 70.1162 28.9697 69.293 27.791 69.293H23.4971L23.5029 58.6611H27.791C28.9697 58.6611 29.9873 57.8389 30.2354 56.6865C31.1104 52.6113 32.7041 48.7666 34.9707 45.2588C35.6104 44.2695 35.4717 42.9678 34.6387 42.1348L31.6172 39.1123L39.1377 31.5977L42.1563 34.6172C42.9902 35.4502 44.291 35.5879 45.2813 34.9492C48.7881 32.6826 52.6328 31.0889 56.709 30.2139C57.8604 29.9658 58.6836 28.9473 58.6836 27.7695V23.5H69.3154V27.7686C69.3154 28.9473 70.1377 29.9658 71.29 30.2129C75.3652 31.0889 79.2109 32.6816 82.7178 34.9482C83.707 35.5879 85.0088 35.4502 85.8418 34.6162L88.8613 31.5977L96.3818 39.1123L93.3604 42.1338C92.5264 42.9678 92.3887 44.2695 93.0283 45.2588C95.2949 48.7666 96.8877 52.6113 97.7637 56.6865C98.0107 57.8389 99.0293 58.6611 100.208 58.6611H104.504V69.293H100.208C99.0293 69.293 98.0117 70.1162 97.7637 71.2676C96.8887 75.3428 95.2949 79.1885 93.0283 82.6953C92.3887 83.6855 92.5273 84.9873 93.3604 85.8203L96.4014 88.8613L88.8867 96.3818L85.8428 93.3389C85.0088 92.5049 83.707 92.3672 82.7178 93.0068C79.21 95.2734 75.3652 96.8662 71.29 97.7422C70.1377 97.9902 69.3154 99.0078 69.3154 100.187V104.5H58.6836V100.187C58.6836 99.0088 57.8604 97.9902 56.709 97.7422C52.6338 96.8672 48.7891 95.2734 45.2813 93.0068Z" fill="black"/>
<path d="M84.6572 64C84.6572 52.6094 75.3906 43.3428 64 43.3428C52.6094 43.3428 43.3428 52.6094 43.3428 64C43.3428 75.3906 52.6094 84.6572 64 84.6572C75.3906 84.6572 84.6572 75.3906 84.6572 64ZM48.3428 64C48.3428 55.3662 55.3662 48.3428 64 48.3428C72.6338 48.3428 79.6572 55.3672 79.6572 64C79.6572 72.6328 72.6338 79.6572 64 79.6572C55.3662 79.6572 48.3428 72.6338 48.3428 64Z" fill="black"/>
<path d="M87.0195 9.45508C87.6777 9.45508 88.3223 9.1875 88.7871 8.72266C89.252 8.25488 89.5195 7.61035 89.5195 6.95215C89.5195 6.29785 89.2529 5.65234 88.7871 5.18457C88.3223 4.71973 87.6777 4.45215 87.0195 4.45215C86.3594 4.45215 85.7178 4.71973 85.2529 5.18457C84.7871 5.65234 84.5195 6.29492 84.5195 6.95215C84.5195 7.6123 84.7871 8.25488 85.2529 8.72266C85.7178 9.1875 86.3594 9.45508 87.0195 9.45508Z" fill="black"/>
<path d="M41.0898 118.59C40.4326 118.59 39.7871 118.857 39.3223 119.322C38.8574 119.787 38.5898 120.433 38.5898 121.09C38.5898 121.75 38.8574 122.393 39.3223 122.857C39.7871 123.322 40.4326 123.59 41.0898 123.59C41.7471 123.59 42.3926 123.322 42.8574 122.857C43.3223 122.393 43.5898 121.747 43.5898 121.09C43.5898 120.433 43.3223 119.787 42.8574 119.322C42.3926 118.857 41.7471 118.59 41.0898 118.59Z" fill="black"/>
</g>
<defs>
<clipPath id="clip0_10_197">
<rect width="128" height="128" fill="white"/>
</clipPath>
</defs>
</svg>
