<svg width="32" height="49" viewBox="0 0 32 49" fill="none" xmlns="http://www.w3.org/2000/svg">
<path d="M26.5899 46.9875L26.5827 46.9981L26.5762 47.0091C26.4084 47.2888 26.1896 47.5271 25.9158 47.7252L25.9155 47.7254C25.6431 47.9229 25.3946 48.0386 25.1694 48.092C25.106 48.098 25.0308 48.1092 24.9671 48.1188L24.9662 48.1189C24.9661 48.1189 24.9661 48.1189 24.966 48.1189C24.8873 48.1307 24.7677 48.1389 24.5999 48.1389C24.2323 48.1389 23.5861 48.041 22.6282 47.8211C21.7462 47.6187 20.6261 47.1088 19.2575 46.2574C17.9109 45.4198 16.3649 44.1507 14.6177 42.4368L14.2676 42.7938L14.6177 42.4368C12.8902 40.7423 11.0376 38.4014 9.06162 35.4029L9.06165 35.4029L9.05832 35.398C7.48828 33.076 6.1909 30.8601 5.16408 28.7502C4.13185 26.6291 3.30438 24.6736 2.67975 22.8829L2.20765 23.0476L2.67975 22.8829C2.05242 21.0847 1.58452 19.4617 1.27368 18.0125C0.959849 16.5495 0.748865 15.2972 0.638376 14.2528C0.526385 13.1942 0.484016 12.3829 0.505304 11.808C0.525672 11.2579 0.537379 10.9158 0.539255 10.7999C0.581693 10.3707 0.674755 9.93012 0.820376 9.47754C0.967368 9.02071 1.13802 8.67613 1.32212 8.42754L1.32949 8.41758L1.33636 8.40727L5.84189 1.64732C6.10592 1.25119 6.33243 1.15845 6.50987 1.15845C6.63748 1.15845 6.76778 1.20581 6.91528 1.37178L7.28375 1.04433L6.91528 1.37178C7.09626 1.57544 7.2591 1.83567 7.39858 2.16104L11.0179 12.4635L11.0178 12.4635L11.0215 12.4733C11.192 12.9281 11.2441 13.4357 11.1639 14.0072C11.0817 14.5933 10.9107 15.0604 10.6671 15.4258L9.00716 17.9163L9.42322 18.1937L9.00716 17.9164C8.90917 18.0634 8.85383 18.2478 8.81655 18.4156C8.7785 18.5869 8.75384 18.7532 8.75384 18.9052V18.9368L8.75782 18.9682C8.85361 19.7227 9.06682 20.5696 9.3901 21.5055C9.67037 22.346 10.0977 23.3573 10.6668 24.5357C11.245 25.733 12.0601 27.1005 13.1062 28.6362C14.1287 30.2043 15.0479 31.439 15.8634 32.3306L15.8634 32.3307C16.6611 33.2025 17.345 33.8631 17.9101 34.296C18.4432 34.7045 18.9127 35.0018 19.2903 35.1148L19.7131 35.2419L19.7835 35.263H19.857C19.9614 35.263 20.0526 35.2361 20.1096 35.2164C20.1738 35.1941 20.2386 35.1651 20.3008 35.134L20.3011 35.1338C20.451 35.0588 20.6046 34.9495 20.7135 34.7861L20.7157 34.7827L22.6375 31.8487C22.973 31.4067 23.3088 31.2477 23.6512 31.2477C23.9455 31.2477 24.1195 31.3236 24.2312 31.4242L24.3738 31.5526H24.41L30.8015 37.217C31.1809 37.5712 31.4104 38.017 31.4876 38.5792C31.5444 39.2556 31.4054 39.8131 31.0946 40.2798C31.0945 40.2799 31.0945 40.28 31.0944 40.2801L26.5899 46.9875Z" stroke="#333333"/>
</svg>
